<svg width="32" height="32" viewBox="0 0 32 32" fill="none" xmlns="http://www.w3.org/2000/svg">
<path d="M17.2533 16L24.6222 8.6311C24.7678 8.46106 24.8439 8.24232 24.8353 8.01861C24.8266 7.7949 24.7339 7.58269 24.5756 7.42438C24.4173 7.26608 24.2051 7.17334 23.9814 7.16469C23.7577 7.15605 23.5389 7.23215 23.3689 7.37777L16 14.7467L8.63109 7.36888C8.46371 7.2015 8.2367 7.10747 7.99998 7.10747C7.76327 7.10747 7.53625 7.2015 7.36887 7.36888C7.20149 7.53626 7.10746 7.76328 7.10746 7.99999C7.10746 8.23671 7.20149 8.46372 7.36887 8.6311L14.7467 16L7.36887 23.3689C7.27582 23.4486 7.20025 23.5466 7.14689 23.6569C7.09354 23.7672 7.06356 23.8873 7.05883 24.0097C7.0541 24.1321 7.07473 24.2542 7.11942 24.3683C7.1641 24.4823 7.23189 24.5859 7.31852 24.6726C7.40514 24.7592 7.50874 24.827 7.62281 24.8717C7.73687 24.9164 7.85895 24.937 7.98136 24.9323C8.10378 24.9275 8.2239 24.8975 8.33418 24.8442C8.44446 24.7908 8.54252 24.7153 8.62221 24.6222L16 17.2533L23.3689 24.6222C23.5389 24.7678 23.7577 24.8439 23.9814 24.8353C24.2051 24.8267 24.4173 24.7339 24.5756 24.5756C24.7339 24.4173 24.8266 24.2051 24.8353 23.9814C24.8439 23.7577 24.7678 23.5389 24.6222 23.3689L17.2533 16Z" fill="white"/>
</svg>
