<svg width="32" height="32" viewBox="0 0 32 32" fill="none" xmlns="http://www.w3.org/2000/svg">
<path d="M12 26.6667H8.00002C6.58553 26.6667 5.22898 26.1048 4.22878 25.1046C3.22859 24.1044 2.66669 22.7478 2.66669 21.3333V9.33333C2.66669 7.91885 3.22859 6.56229 4.22878 5.5621C5.22898 4.5619 6.58553 4 8.00002 4H22.6667C24.0812 4 25.4377 4.5619 26.4379 5.5621C27.4381 6.56229 28 7.91885 28 9.33333V13.3333" stroke="white" stroke-width="2.66667" stroke-linecap="round" stroke-linejoin="round"/>
<path d="M10.6667 2.66667V5.33334" stroke="white" stroke-width="2.66667" stroke-linecap="round" stroke-linejoin="round"/>
<path d="M20 2.66667V5.33334" stroke="white" stroke-width="2.66667" stroke-linecap="round" stroke-linejoin="round"/>
<path d="M2.66669 10.6667H28" stroke="white" stroke-width="2.66667" stroke-linecap="round" stroke-linejoin="round"/>
<path d="M24.6667 20.8573L22.6667 22.8573" stroke="white" stroke-width="2.66667" stroke-linecap="round" stroke-linejoin="round"/>
<path d="M22.6667 29.3333C26.3486 29.3333 29.3333 26.3486 29.3333 22.6667C29.3333 18.9848 26.3486 16 22.6667 16C18.9848 16 16 18.9848 16 22.6667C16 26.3486 18.9848 29.3333 22.6667 29.3333Z" stroke="white" stroke-width="2.66667" stroke-linecap="round" stroke-linejoin="round"/>
</svg>
