<svg width="32" height="32" viewBox="0 0 32 32" fill="none" xmlns="http://www.w3.org/2000/svg">
<path d="M16 2.66667C13.1894 2.66653 10.4923 3.77568 8.49497 5.75306C6.49762 7.73044 5.36142 10.4162 5.33331 13.2267C5.33331 20.5333 14.7333 28.6667 15.1333 29.0133C15.3748 29.2199 15.6822 29.3334 16 29.3334C16.3178 29.3334 16.6251 29.2199 16.8666 29.0133C17.3333 28.6667 26.6666 20.5333 26.6666 13.2267C26.6385 10.4162 25.5023 7.73044 23.505 5.75306C21.5076 3.77568 18.8106 2.66653 16 2.66667ZM16 26.2C13.7733 24.08 7.99998 18.2 7.99998 13.2267C7.99998 11.1049 8.84283 9.07011 10.3431 7.56982C11.8434 6.06953 13.8782 5.22667 16 5.22667C18.1217 5.22667 20.1565 6.06953 21.6568 7.56982C23.1571 9.07011 24 11.1049 24 13.2267C24 18.16 18.2266 24.08 16 26.2Z" fill="white"/>
<path d="M16 8C15.077 8 14.1748 8.27369 13.4073 8.78647C12.6399 9.29925 12.0418 10.0281 11.6885 10.8808C11.3353 11.7335 11.2429 12.6718 11.423 13.5771C11.603 14.4823 12.0475 15.3139 12.7002 15.9665C13.3528 16.6191 14.1843 17.0636 15.0896 17.2437C15.9948 17.4237 16.9331 17.3313 17.7858 16.9781C18.6386 16.6249 19.3674 16.0268 19.8802 15.2593C20.393 14.4919 20.6666 13.5896 20.6666 12.6667C20.6666 11.429 20.175 10.242 19.2998 9.36684C18.4246 8.49167 17.2377 8 16 8V8ZM16 14.6667C15.6044 14.6667 15.2177 14.5494 14.8888 14.3296C14.5599 14.1098 14.3036 13.7975 14.1522 13.432C14.0008 13.0666 13.9612 12.6644 14.0384 12.2765C14.1156 11.8885 14.3061 11.5322 14.5858 11.2525C14.8655 10.9727 15.2218 10.7823 15.6098 10.7051C15.9978 10.6279 16.3999 10.6675 16.7653 10.8189C17.1308 10.9703 17.4432 11.2266 17.6629 11.5555C17.8827 11.8844 18 12.2711 18 12.6667C18 13.1971 17.7893 13.7058 17.4142 14.0809C17.0391 14.456 16.5304 14.6667 16 14.6667Z" fill="white"/>
</svg>
