<svg width="32" height="32" viewBox="0 0 32 32" fill="none" xmlns="http://www.w3.org/2000/svg">
<path d="M21.8134 18.6667C21.92 17.7867 22 16.9067 22 16C22 15.0933 21.92 14.2133 21.8134 13.3333H26.32C26.5334 14.1867 26.6667 15.08 26.6667 16C26.6667 16.92 26.5334 17.8133 26.32 18.6667H21.8134ZM19.4534 26.08C20.2534 24.6 20.8667 23 21.2934 21.3333H25.2267C23.9349 23.5577 21.8855 25.2427 19.4534 26.08V26.08ZM19.12 18.6667H12.88C12.7467 17.7867 12.6667 16.9067 12.6667 16C12.6667 15.0933 12.7467 14.2 12.88 13.3333H19.12C19.24 14.2 19.3334 15.0933 19.3334 16C19.3334 16.9067 19.24 17.7867 19.12 18.6667ZM16 26.6133C14.8934 25.0133 14 23.24 13.4534 21.3333H18.5467C18 23.24 17.1067 25.0133 16 26.6133ZM10.6667 10.6667H6.77335C8.05183 8.43629 10.0997 6.74865 12.5334 5.92001C11.7334 7.40001 11.1334 9.00001 10.6667 10.6667ZM6.77335 21.3333H10.6667C11.1334 23 11.7334 24.6 12.5334 26.08C10.1049 25.2422 8.05982 23.557 6.77335 21.3333V21.3333ZM5.68002 18.6667C5.46669 17.8133 5.33335 16.92 5.33335 16C5.33335 15.08 5.46669 14.1867 5.68002 13.3333H10.1867C10.08 14.2133 10 15.0933 10 16C10 16.9067 10.08 17.7867 10.1867 18.6667H5.68002ZM16 5.37334C17.1067 6.97334 18 8.76001 18.5467 10.6667H13.4534C14 8.76001 14.8934 6.97334 16 5.37334V5.37334ZM25.2267 10.6667H21.2934C20.876 9.01528 20.2581 7.4212 19.4534 5.92001C21.9067 6.76001 23.9467 8.45334 25.2267 10.6667ZM16 2.66667C8.62669 2.66667 2.66669 8.66667 2.66669 16C2.66669 19.5362 4.07144 22.9276 6.57193 25.4281C7.81004 26.6662 9.2799 27.6483 10.8976 28.3184C12.5152 28.9885 14.2491 29.3333 16 29.3333C19.5362 29.3333 22.9276 27.9286 25.4281 25.4281C27.9286 22.9276 29.3334 19.5362 29.3334 16C29.3334 14.249 28.9885 12.5152 28.3184 10.8976C27.6484 9.27988 26.6662 7.81003 25.4281 6.57191C24.19 5.3338 22.7201 4.35167 21.1025 3.68161C19.4848 3.01155 17.751 2.66667 16 2.66667V2.66667Z" fill="white"/>
</svg>
